<?xml version="1.0" encoding="UTF-8" standalone="no"?>
<!DOCTYPE svg PUBLIC "-//W3C//DTD SVG 1.1//EN" "http://www.w3.org/Graphics/SVG/1.1/DTD/svg11.dtd">
<svg width="100%" height="100%" viewBox="0 0 108 116" version="1.1" xmlns="http://www.w3.org/2000/svg" xmlns:xlink="http://www.w3.org/1999/xlink" xml:space="preserve" style="fill-rule:evenodd;clip-rule:evenodd;stroke-linejoin:round;stroke-miterlimit:1.41421;">
    <g transform="matrix(0.694444,0,0,0.694444,0,0)">
        <g id="Artboard1" transform="matrix(0.288682,0,0,0.800421,-28.5509,-219.851)">
            <rect x="98.901" y="274.669" width="535.724" height="207.99" style="fill:none;"/>
            <clipPath id="_clip1">
                <rect x="98.901" y="274.669" width="535.724" height="207.99"/>
            </clipPath>
            <g clip-path="url(#_clip1)">
                <g transform="matrix(1.40402,0,0,0.438936,-307.85,142.265)">
                    <g opacity="0.356224">
                        <g transform="matrix(1.08295,0,0,1.24934,108.79,281.008)">
                            <path d="M436.168,331.222C437.121,331.222 438.074,331.081 438.996,330.831C470.039,322.268 490.599,312.692 501.879,301.569C512.502,291.04 512.846,281.024 511.268,274.464C509.44,266.917 504.847,261.169 497.973,257.825C488.506,253.217 475.288,253.373 457.604,258.341C453.073,259.591 448.886,261.013 445.418,262.294L447.011,245.233C455.416,245.233 466.789,245.233 470.696,245.233C480.819,245.233 499.13,236.141 504.754,226.502C507.425,221.894 508.597,216.19 499.317,184.555C494.942,169.666 490.193,155.793 490.005,155.215C489.692,154.34 489.286,153.496 488.756,152.731C488.381,152.168 479.412,138.842 466.602,125.36C459.823,118.22 453.245,112.378 446.886,107.832L432.95,40.434C432.309,37.387 430.388,34.763 427.67,33.263C424.951,31.747 421.701,31.513 418.796,32.591C405.032,37.699 396.705,48.511 391.675,59.806L383.223,38.637C381.067,33.247 375.022,30.575 369.584,32.607C365.225,34.232 350.664,42.481 346.213,80.241C343.932,99.598 349.337,126.079 354.695,146.013L343.025,183.664C331.496,188.397 303.14,201.599 280.408,224.736C280.783,217.581 281.017,209.847 280.939,201.739C280.501,151.48 269.269,113.095 247.553,87.614C226.939,63.43 197.591,51.869 160.338,53.26C129.03,54.432 101.222,59.868 77.686,69.446C58.47,77.242 42.035,87.802 28.818,100.817C5.821,123.469 0.518,145.935 0.307,146.888C-0.568,150.716 0.737,154.7 3.697,157.278C6.658,159.871 10.798,160.605 14.469,159.215C14.735,159.121 40.903,149.358 70.282,148.248C107.051,146.873 131.039,159.434 141.577,185.618C149.295,204.818 145.139,237.751 140.733,272.605C133.468,330.128 125.235,395.322 162.855,438.003C187.82,466.312 228.752,480.075 288.002,480.075L458.635,480.075C460.572,480.075 462.447,479.544 464.102,478.559C466.805,476.952 490.49,462.204 490.568,441.674C490.584,438.596 489.724,434.051 485.506,429.817C479.162,423.458 466.289,419.538 445.012,417.46C438.871,416.866 432.95,416.522 428.076,416.319L434.481,365.872C434.684,365.231 434.825,364.575 434.919,363.905C436.543,351.202 434.45,340.079 428.67,330.737L435.45,331.19C435.699,331.206 435.918,331.222 436.168,331.222ZM408.5,75.679C410.266,69.711 412.578,64.806 415.422,60.993L422.795,96.707C420.546,96.301 418.327,96.082 416.172,96.082C412.734,96.082 409.484,96.285 406.392,96.629L405.392,94.083C405.563,90.739 406.204,83.428 408.5,75.679ZM178.853,423.896C147.607,388.449 155.2,328.332 161.894,275.277C166.659,237.594 171.151,201.99 161.363,177.65C147.31,142.749 115.542,125.204 69.477,126.938C54.901,127.485 41.168,129.89 30.302,132.437C33.794,127.079 38.504,121.064 44.8,115.034C56.072,104.222 70.172,95.395 86.709,88.803C107.73,80.413 132.772,75.633 161.128,74.586C191.952,73.43 214.902,82.21 231.298,101.426C273.598,150.998 256.49,253.077 254.569,263.655C253.967,265.216 253.405,266.794 252.874,268.403C242.212,300.993 236.938,332.13 237.196,360.938C237.407,384.293 241.227,406.198 248.562,426.038C252.655,437.099 257.4,446.293 261.977,453.713C262.473,454.501 262.479,455.504 261.991,456.297C261.503,457.091 260.606,457.539 259.678,457.451C243.91,455.941 229.956,453.084 217.996,448.896C201.372,443.097 188.577,434.911 178.853,423.896ZM396.924,307.257C376.083,299.741 350.68,298.569 330.653,298.569C324.762,298.569 319.998,303.335 319.998,309.223C319.998,315.114 324.763,319.895 330.653,319.895C356.774,319.895 376.865,322.518 390.769,327.737C390.8,327.737 390.832,327.753 390.863,327.768C398.44,330.612 404.174,334.221 408.032,338.594C413.11,344.36 414.985,351.748 413.766,361.186C413.703,361.639 413.688,362.092 413.688,362.545L413.391,362.545L405.423,425.348C405.032,428.395 406.017,431.457 408.047,433.754C410.063,436.049 413,437.361 416.063,437.361L416.079,437.361C417.407,437.361 429.39,437.392 442.513,438.642C459.011,440.22 466.072,442.626 468.822,443.955C467.15,449.002 460.823,455 455.48,458.734L292.313,458.734C280.736,446.502 235.704,389.463 273.16,275.041C289.299,225.688 354.57,202.02 355.211,201.785C358.399,200.677 360.867,198.114 361.866,194.895L366.803,178.929C368.678,180.412 371.006,181.241 373.428,181.241C374.616,181.241 375.849,181.038 377.036,180.6C382.582,178.601 385.457,172.492 383.457,166.946C383.41,166.821 378.458,153.057 374.021,135.545C368.271,112.954 365.99,94.691 367.396,82.739C368.271,75.318 369.537,69.616 370.896,65.273L384.816,100.096L406.047,153.198C408.234,158.666 414.437,161.338 419.904,159.15C425.372,156.963 428.044,150.746 425.856,145.277L414.717,117.422C415.201,117.422 415.67,117.406 416.17,117.406C420.357,117.406 425.449,119.297 431.137,122.889C431.418,123.092 431.731,123.295 432.058,123.483C437.838,127.28 444.229,132.779 450.946,139.84C460.539,149.933 467.975,160.196 470.288,163.509C477.287,184.115 484.411,208.705 485.239,216.876C481.958,219.704 473.866,223.734 470.694,223.891C464.225,223.891 437.292,223.907 437.292,223.907C431.794,223.907 427.2,228.095 426.7,233.578L424.044,261.683L396.985,256.106C391.22,254.918 385.581,258.636 384.393,264.402C383.205,270.166 386.924,275.806 392.673,276.994L438.01,286.336C440.229,286.789 442.526,286.524 444.573,285.586C444.667,285.555 453.071,281.758 463.351,278.869C480.504,274.072 487.036,276.228 488.629,277.01C489.612,277.479 490.175,277.994 490.534,279.477C491.065,281.68 488.847,284.446 486.879,286.383C481.145,292.055 467.506,300.662 435.042,309.785L396.924,307.257Z" style="fill-rule:nonzero;"/>
                        </g>
                        <g transform="matrix(1.08295,0,0,1.24934,98.901,274.669)">
                            <path d="M437.309,191.897C443.2,191.897 447.98,187.131 447.98,181.242C447.98,175.353 443.2,170.572 437.309,170.572C431.42,170.572 426.639,175.352 426.639,181.242C426.639,187.132 431.42,191.897 437.309,191.897Z" style="fill-rule:nonzero;"/>
                        </g>
                    </g>
                </g>
            </g>
        </g>
    </g>
</svg>
