<?xml version="1.0" encoding="UTF-8" standalone="no"?>
<!DOCTYPE svg PUBLIC "-//W3C//DTD SVG 1.1//EN" "http://www.w3.org/Graphics/SVG/1.1/DTD/svg11.dtd">
<svg width="100%" height="100%" viewBox="0 0 344 116" version="1.1" xmlns="http://www.w3.org/2000/svg" xmlns:xlink="http://www.w3.org/1999/xlink" xml:space="preserve" style="fill-rule:evenodd;clip-rule:evenodd;stroke-linejoin:round;stroke-miterlimit:1.41421;">
    <g transform="matrix(0.694444,0,0,0.694444,0,0)">
        <g id="Artboard1" transform="matrix(0.923405,0,0,0.800421,-91.3257,-219.851)">
            <rect x="98.901" y="274.669" width="535.724" height="207.99" style="fill:none;"/>
            <g transform="matrix(1.08295,0,0,1.24934,-155.597,-47.3766)">
                <path d="M400,341.241C400,297.01 364.09,261.1 319.859,261.1C275.629,261.1 239.719,297.01 239.719,341.241C239.719,385.471 275.629,421.381 319.859,421.381C364.09,421.381 400,385.471 400,341.241Z" style="fill:rgb(255,187,87);"/>
            </g>
            <g transform="matrix(1.08295,0,0,1.24934,98.901,274.669)">
                <path d="M22.674,32.932C24.321,34.333 25.868,35.882 27.314,37.578C36.493,48.349 41.241,64.574 41.426,85.819C41.459,89.246 41.36,92.515 41.201,95.539C50.81,85.759 62.796,80.179 67.67,78.178L72.603,62.263C70.338,53.837 68.053,42.644 69.017,34.462C70.899,18.5 77.054,15.014 78.896,14.327C81.195,13.468 83.75,14.597 84.661,16.876L88.234,25.824C90.36,21.049 93.88,16.479 99.698,14.32C100.926,13.864 102.3,13.963 103.449,14.604C104.598,15.238 105.41,16.347 105.681,17.635L111.572,46.124C114.259,48.046 117.04,50.515 119.905,53.533C125.32,59.232 129.111,64.865 129.27,65.103C129.494,65.426 129.666,65.783 129.798,66.153C129.877,66.397 131.885,72.261 133.734,78.555C137.657,91.927 137.161,94.338 136.032,96.286C133.655,100.36 125.915,104.203 121.636,104.203C119.984,104.203 115.177,104.203 111.624,104.203L110.951,111.415C112.417,110.874 114.187,110.273 116.102,109.744C123.577,107.644 129.164,107.578 133.166,109.526C136.072,110.94 138.013,113.369 138.786,116.559C139.453,119.332 139.307,123.566 134.817,128.017C130.049,132.718 121.358,136.766 108.236,140.386C107.847,140.491 107.444,140.551 107.041,140.551C106.935,140.551 106.843,140.544 106.738,140.537L103.872,140.346C106.315,144.295 107.2,148.996 106.513,154.366C106.473,154.649 106.414,154.926 106.328,155.197L105.605,160.891C102.561,161.707 99.445,162.347 96.27,162.8L97.413,153.791L97.539,153.791C97.539,153.599 97.545,153.408 97.572,153.217C98.087,149.227 97.294,146.104 95.148,143.667C93.517,141.819 91.093,140.293 87.891,139.091C87.878,139.084 87.864,139.078 87.851,139.078C81.974,136.872 73.481,135.763 62.44,135.763C59.95,135.763 57.936,133.742 57.936,131.252C57.936,128.763 59.95,126.748 62.44,126.748C70.905,126.748 81.643,127.244 90.453,130.421L106.565,131.489C120.288,127.633 126.053,123.995 128.477,121.597C129.308,120.779 130.246,119.609 130.021,118.678C129.87,118.051 129.632,117.834 129.216,117.635C128.543,117.305 125.782,116.394 118.531,118.421C114.186,119.642 110.634,121.247 110.594,121.261C109.729,121.657 108.758,121.769 107.82,121.578L88.656,117.629C86.226,117.127 84.654,114.743 85.156,112.306C85.658,109.869 88.042,108.297 90.478,108.799L101.916,111.157L103.039,99.277C103.25,96.959 105.192,95.189 107.516,95.189C107.516,95.189 118.901,95.182 121.635,95.182C122.976,95.116 126.396,93.412 127.783,92.217C127.433,88.763 124.422,78.369 121.464,69.659C120.486,68.258 117.343,63.92 113.288,59.654C110.448,56.669 107.747,54.345 105.304,52.74C105.166,52.66 105.033,52.575 104.914,52.489C102.51,50.97 100.358,50.171 98.588,50.171C98.377,50.171 98.178,50.178 97.974,50.178L102.682,61.952C103.607,64.264 102.478,66.892 100.166,67.816C97.855,68.741 95.233,67.612 94.309,65.3L85.335,42.854L79.451,28.135C78.876,29.97 78.341,32.381 77.971,35.517C77.377,40.57 78.341,48.289 80.772,57.838C82.647,65.241 84.74,71.059 84.76,71.112C85.606,73.456 84.39,76.038 82.046,76.883C81.544,77.068 81.023,77.154 80.521,77.154C79.497,77.154 78.513,76.804 77.721,76.177L75.634,82.926C75.211,84.286 74.168,85.37 72.821,85.838C72.55,85.937 44.96,95.942 38.138,116.803C34.831,126.904 33.045,135.947 32.334,143.981C29.448,141.473 26.742,138.763 24.24,135.872C25.334,128.802 27.112,121.49 29.563,113.997C29.787,113.317 30.025,112.65 30.279,111.99C31.091,107.519 38.323,64.37 20.443,43.416C19.471,42.278 18.446,41.226 17.364,40.261C18.997,37.716 20.771,35.269 22.674,32.932ZM95.346,32.533C96.092,30.01 97.07,27.937 98.272,26.325L101.388,41.422C100.438,41.25 99.5,41.157 98.589,41.157C97.136,41.157 95.762,41.243 94.455,41.389L94.032,40.313C94.104,38.899 94.375,35.809 95.346,32.533Z" style="fill-opacity:0.404671;"/>
            </g>
            <g transform="matrix(0.457761,0,0,0.528096,10.9804,272.669)">
                <path d="M437.309,191.897C443.2,191.897 447.98,187.131 447.98,181.242C447.98,175.353 443.2,170.572 437.309,170.572C431.42,170.572 426.639,175.352 426.639,181.242C426.639,187.132 431.42,191.897 437.309,191.897Z" style="fill-opacity:0.397;fill-rule:nonzero;"/>
            </g>
            <g transform="matrix(1.24942,1.38705e-16,-6.01157e-17,0.736866,-135.812,181.973)">
                <g transform="matrix(0.866759,0,0,1.69548,39.6283,-122.896)">
                    <path d="M371.462,281.096L371.462,180.853C371.462,179.613 372.01,178.612 373.107,177.85C374.203,177.087 375.609,176.706 377.325,176.706C379.041,176.706 380.471,177.087 381.615,177.85C382.759,178.612 383.331,179.613 383.331,180.853L383.331,227.614C384.952,224.563 387.359,221.989 390.553,219.892C393.746,217.794 397.536,216.746 401.921,216.746C408.69,216.746 414.577,219.439 419.582,224.825C424.587,230.212 427.089,236.67 427.089,244.202L427.089,281.096C427.089,282.43 426.493,283.479 425.302,284.242C424.11,285.004 422.704,285.386 421.083,285.386C419.558,285.386 418.199,285.004 417.008,284.242C415.816,283.479 415.22,282.43 415.22,281.096L415.22,244.202C415.22,239.912 413.599,236.051 410.358,232.619C407.117,229.187 403.303,227.471 398.918,227.471C394.819,227.471 391.196,229.02 388.05,232.118C384.904,235.217 383.331,239.244 383.331,244.202L383.331,281.096C383.331,282.144 382.735,283.122 381.544,284.027C380.352,284.933 378.946,285.386 377.325,285.386C375.704,285.386 374.322,284.957 373.178,284.099C372.034,283.241 371.462,282.24 371.462,281.096Z" style="fill:rgb(70,70,70);fill-rule:nonzero;"/>
                </g>
                <g transform="matrix(0.866759,0,0,1.69548,39.6283,-122.896)">
                    <path d="M437.242,258.788L437.242,244.202C437.242,236.861 440.031,230.45 445.608,224.968C451.185,219.487 457.786,216.746 465.413,216.746C473.04,216.746 479.665,219.463 485.29,224.897C490.915,230.331 493.727,236.766 493.727,244.202L493.727,258.788C493.727,266.033 490.891,272.468 485.219,278.093C479.546,283.717 472.944,286.53 465.413,286.53C457.882,286.53 451.304,283.741 445.679,278.164C440.054,272.587 437.242,266.128 437.242,258.788ZM449.111,258.788C449.111,263.268 450.732,267.225 453.973,270.657C457.214,274.089 461.028,275.805 465.413,275.805C469.894,275.805 473.755,274.065 476.996,270.585C480.237,267.106 481.858,263.173 481.858,258.788L481.858,244.202C481.858,239.912 480.237,236.051 476.996,232.619C473.755,229.187 469.894,227.471 465.413,227.471C460.932,227.471 457.095,229.187 453.902,232.619C450.708,236.051 449.111,239.912 449.111,244.202L449.111,258.788Z" style="fill:rgb(70,70,70);fill-rule:nonzero;"/>
                </g>
                <g transform="matrix(0.866759,0,0,1.69548,39.6283,-122.896)">
                    <path d="M500.019,267.511C500.019,260.075 502.879,254.903 508.599,251.995C514.319,249.088 522.613,247.634 533.481,247.634L540.345,247.634L540.345,244.631C540.345,239.864 539.034,235.717 536.413,232.19C533.791,228.662 529.858,226.899 524.615,226.899C520.611,226.899 517.084,227.59 514.033,228.972C510.982,230.355 509.314,231.046 509.028,231.046C507.693,231.046 506.621,230.402 505.811,229.115C505,227.828 504.595,226.47 504.595,225.04C504.595,222.847 506.764,220.917 511.102,219.248C515.439,217.58 520.039,216.746 524.901,216.746C534.244,216.746 541.132,219.391 545.565,224.682C549.998,229.973 552.214,236.575 552.214,244.488L552.214,281.096C552.214,282.335 551.666,283.36 550.57,284.17C549.473,284.981 548.067,285.386 546.351,285.386C544.826,285.386 543.539,284.981 542.49,284.17C541.441,283.36 540.917,282.335 540.917,281.096L540.917,275.376C534.434,282.812 527.237,286.53 519.324,286.53C513.604,286.53 508.957,284.909 505.382,281.668C501.807,278.426 500.019,273.707 500.019,267.511ZM512.031,266.224C512.031,269.751 513.032,272.42 515.034,274.232C517.036,276.043 519.705,276.949 523.042,276.949C527.046,276.949 530.931,275.352 534.697,272.158C538.462,268.965 540.345,265.699 540.345,262.363L540.345,254.927L535.34,254.927C532.575,254.927 530.192,254.998 528.19,255.141C526.188,255.284 524.115,255.57 521.97,255.999C519.825,256.428 518.061,257.048 516.679,257.858C515.296,258.669 514.176,259.765 513.318,261.147C512.46,262.53 512.031,264.222 512.031,266.224Z" style="fill:rgb(70,70,70);fill-rule:nonzero;"/>
                </g>
                <g transform="matrix(0.866759,0,0,1.69548,39.6283,-122.896)">
                    <path d="M564.941,281.096L564.941,221.751C564.941,220.511 565.489,219.51 566.586,218.748C567.682,217.985 569.088,217.604 570.804,217.604C572.329,217.604 573.616,217.985 574.665,218.748C575.714,219.51 576.238,220.511 576.238,221.751L576.238,228.472C577.954,225.23 580.48,222.466 583.817,220.178C587.154,217.89 590.872,216.746 594.971,216.746L599.833,216.746C601.072,216.746 602.145,217.294 603.051,218.39C603.956,219.487 604.409,220.75 604.409,222.18C604.409,223.61 603.956,224.849 603.051,225.898C602.145,226.946 601.072,227.471 599.833,227.471L594.971,227.471C590.109,227.471 585.867,229.425 582.244,233.334C578.621,237.242 576.81,242.295 576.81,248.492L576.81,281.096C576.81,282.144 576.214,283.122 575.023,284.027C573.831,284.933 572.425,285.386 570.804,285.386C569.183,285.386 567.801,284.957 566.657,284.099C565.513,283.241 564.941,282.24 564.941,281.096Z" style="fill:rgb(70,70,70);fill-rule:nonzero;"/>
                </g>
                <g transform="matrix(0.866759,0,0,1.69548,39.6283,-122.896)">
                    <path d="M605.839,258.788L605.839,244.202C605.839,236.67 608.365,230.212 613.418,224.825C618.471,219.439 624.477,216.746 631.436,216.746C635.726,216.746 639.492,217.794 642.733,219.892C645.974,221.989 648.453,224.563 650.169,227.614L650.169,180.853C650.169,179.613 650.741,178.612 651.885,177.85C653.029,177.087 654.459,176.706 656.175,176.706C657.891,176.706 659.297,177.087 660.394,177.85C661.49,178.612 662.038,179.613 662.038,180.853L662.038,281.096C662.038,282.24 661.466,283.241 660.322,284.099C659.178,284.957 657.796,285.386 656.175,285.386C654.745,285.386 653.482,284.957 652.386,284.099C651.289,283.241 650.741,282.24 650.741,281.096L650.741,275.376C649.12,278.426 646.499,281.048 642.876,283.241C639.253,285.433 635.297,286.53 631.007,286.53C624.334,286.53 618.471,283.717 613.418,278.093C608.365,272.468 605.839,266.033 605.839,258.788ZM617.708,258.788C617.708,263.173 619.329,267.106 622.57,270.585C625.811,274.065 629.577,275.805 633.867,275.805C638.062,275.805 641.827,274.208 645.164,271.014C648.501,267.821 650.169,265.032 650.169,262.649L650.169,244.202C650.169,239.244 648.548,235.217 645.307,232.118C642.066,229.02 638.3,227.471 634.01,227.471C629.625,227.471 625.811,229.187 622.57,232.619C619.329,236.051 617.708,239.912 617.708,244.202L617.708,258.788Z" style="fill:rgb(70,70,70);fill-rule:nonzero;"/>
                </g>
            </g>
        </g>
    </g>
</svg>
